<mxfile host="app.diagrams.net" modified="2022-04-26T00:48:07.425Z" agent="5.0 (Macintosh; Intel Mac OS X 10_15_7) AppleWebKit/605.1.15 (KHTML, like Gecko) Version/15.0 Safari/605.1.15" etag="XfKoey5CvTjmdicS4zVN" version="17.4.6" type="github">
  <diagram id="C5RBs43oDa-KdzZeNtuy" name="Page-1">
    <mxGraphModel dx="1113" dy="749" grid="1" gridSize="10" guides="1" tooltips="1" connect="1" arrows="1" fold="1" page="1" pageScale="1" pageWidth="827" pageHeight="1169" math="0" shadow="0">
      <root>
        <mxCell id="WIyWlLk6GJQsqaUBKTNV-0" />
        <mxCell id="WIyWlLk6GJQsqaUBKTNV-1" parent="WIyWlLk6GJQsqaUBKTNV-0" />
        <mxCell id="WIyWlLk6GJQsqaUBKTNV-2" value="" style="rounded=0;html=1;jettySize=auto;orthogonalLoop=1;fontSize=11;endArrow=block;endFill=0;endSize=8;strokeWidth=1;shadow=0;labelBackgroundColor=none;edgeStyle=orthogonalEdgeStyle;entryX=0.5;entryY=0;entryDx=0;entryDy=0;" parent="WIyWlLk6GJQsqaUBKTNV-1" source="WIyWlLk6GJQsqaUBKTNV-3" target="GjC-EsQWn6sngkv1voxn-0" edge="1">
          <mxGeometry relative="1" as="geometry">
            <mxPoint x="423.12" y="330" as="targetPoint" />
          </mxGeometry>
        </mxCell>
        <mxCell id="GjC-EsQWn6sngkv1voxn-10" style="rounded=0;orthogonalLoop=1;jettySize=auto;html=0;entryX=1;entryY=1;entryDx=0;entryDy=0;fontSize=14;fontColor=none;strokeColor=default;endArrow=oval;endFill=1;" edge="1" parent="WIyWlLk6GJQsqaUBKTNV-1" source="WIyWlLk6GJQsqaUBKTNV-3" target="GjC-EsQWn6sngkv1voxn-9">
          <mxGeometry relative="1" as="geometry" />
        </mxCell>
        <mxCell id="GjC-EsQWn6sngkv1voxn-12" style="edgeStyle=none;rounded=0;orthogonalLoop=1;jettySize=auto;html=0;entryX=0.5;entryY=1;entryDx=0;entryDy=0;fontSize=14;fontColor=none;endArrow=oval;endFill=1;strokeColor=default;" edge="1" parent="WIyWlLk6GJQsqaUBKTNV-1" source="WIyWlLk6GJQsqaUBKTNV-3">
          <mxGeometry relative="1" as="geometry">
            <mxPoint x="403.1200000000001" y="165" as="targetPoint" />
          </mxGeometry>
        </mxCell>
        <mxCell id="GjC-EsQWn6sngkv1voxn-14" style="edgeStyle=none;rounded=0;orthogonalLoop=1;jettySize=auto;html=0;entryX=0;entryY=1;entryDx=0;entryDy=0;fontSize=14;fontColor=none;endArrow=oval;endFill=1;strokeColor=default;" edge="1" parent="WIyWlLk6GJQsqaUBKTNV-1" source="WIyWlLk6GJQsqaUBKTNV-3" target="GjC-EsQWn6sngkv1voxn-13">
          <mxGeometry relative="1" as="geometry">
            <mxPoint x="430" y="235" as="sourcePoint" />
          </mxGeometry>
        </mxCell>
        <mxCell id="WIyWlLk6GJQsqaUBKTNV-3" value="&lt;font style=&quot;font-size: 14px&quot;&gt;原有数据处理&lt;/font&gt;&lt;font style=&quot;font-size: 16px&quot;&gt;&lt;br style=&quot;font-size: 16px&quot;&gt;&lt;/font&gt;" style="rounded=1;whiteSpace=wrap;html=1;fontSize=16;glass=0;strokeWidth=1;shadow=0;" parent="WIyWlLk6GJQsqaUBKTNV-1" vertex="1">
          <mxGeometry x="323.12" y="240" width="160" height="40" as="geometry" />
        </mxCell>
        <mxCell id="WIyWlLk6GJQsqaUBKTNV-8" value="No" style="rounded=0;html=1;jettySize=auto;orthogonalLoop=1;fontSize=11;endArrow=block;endFill=0;endSize=8;strokeWidth=1;shadow=0;labelBackgroundColor=none;edgeStyle=orthogonalEdgeStyle;fontColor=none;noLabel=1;entryX=0.5;entryY=0;entryDx=0;entryDy=0;" parent="WIyWlLk6GJQsqaUBKTNV-1" target="WIyWlLk6GJQsqaUBKTNV-11" edge="1">
          <mxGeometry x="0.3333" y="20" relative="1" as="geometry">
            <mxPoint as="offset" />
            <mxPoint x="402.5" y="480" as="sourcePoint" />
            <mxPoint x="402.5" y="540" as="targetPoint" />
          </mxGeometry>
        </mxCell>
        <mxCell id="WIyWlLk6GJQsqaUBKTNV-11" value="&lt;span style=&quot;font-size: 10.5pt ; font-family: , sans-serif&quot;&gt;匹配起始时间&lt;/span&gt;&lt;span style=&quot;font-size: 10.5pt ; font-family: , sans-serif&quot;&gt;和终止时间&lt;/span&gt;" style="rounded=1;whiteSpace=wrap;html=1;fontSize=12;glass=0;strokeWidth=1;shadow=0;" parent="WIyWlLk6GJQsqaUBKTNV-1" vertex="1">
          <mxGeometry x="320" y="600" width="166.25" height="40" as="geometry" />
        </mxCell>
        <mxCell id="GjC-EsQWn6sngkv1voxn-0" value="&lt;pre&gt;&lt;span style=&quot;font-size: 10.5pt ; font-family: , sans-serif&quot;&gt;生成新的用户的起始地点&lt;/span&gt;&lt;/pre&gt;&lt;span style=&quot;font-size: medium&quot;&gt;&lt;/span&gt;" style="rounded=1;whiteSpace=wrap;html=1;" vertex="1" parent="WIyWlLk6GJQsqaUBKTNV-1">
          <mxGeometry x="321.25" y="360" width="162.5" height="40" as="geometry" />
        </mxCell>
        <mxCell id="GjC-EsQWn6sngkv1voxn-6" value="No" style="rounded=0;html=1;jettySize=auto;orthogonalLoop=1;fontSize=11;endArrow=block;endFill=0;endSize=8;strokeWidth=1;shadow=0;labelBackgroundColor=none;edgeStyle=orthogonalEdgeStyle;exitX=0.5;exitY=1;exitDx=0;exitDy=0;fontColor=none;noLabel=1;entryX=0.5;entryY=0;entryDx=0;entryDy=0;" edge="1" parent="WIyWlLk6GJQsqaUBKTNV-1" source="GjC-EsQWn6sngkv1voxn-0" target="GjC-EsQWn6sngkv1voxn-8">
          <mxGeometry x="0.3333" y="20" relative="1" as="geometry">
            <mxPoint as="offset" />
            <mxPoint x="412.5" y="540" as="sourcePoint" />
            <mxPoint x="402.5" y="440" as="targetPoint" />
          </mxGeometry>
        </mxCell>
        <mxCell id="GjC-EsQWn6sngkv1voxn-8" value="&lt;span style=&quot;font-size: 10.5pt ; font-family: , sans-serif&quot;&gt;生成新的用户的终止地点&lt;/span&gt;&lt;span style=&quot;font-size: medium&quot;&gt;&lt;/span&gt;" style="rounded=1;whiteSpace=wrap;html=1;fontSize=12;glass=0;strokeWidth=1;shadow=0;" vertex="1" parent="WIyWlLk6GJQsqaUBKTNV-1">
          <mxGeometry x="320" y="480" width="165" height="40" as="geometry" />
        </mxCell>
        <mxCell id="GjC-EsQWn6sngkv1voxn-9" value="1.&lt;span style=&quot;font-size: 10.5pt ; font-family: , sans-serif&quot;&gt;对原有数据处理并查看分布&lt;/span&gt;&lt;span style=&quot;font-size: medium&quot;&gt;&lt;/span&gt;" style="ellipse;whiteSpace=wrap;html=1;rounded=1;fontSize=14;fontColor=none;" vertex="1" parent="WIyWlLk6GJQsqaUBKTNV-1">
          <mxGeometry x="40" y="125" width="220" height="80" as="geometry" />
        </mxCell>
        <mxCell id="GjC-EsQWn6sngkv1voxn-11" value="2.原有数据用户分组并求中心位置" style="ellipse;whiteSpace=wrap;html=1;rounded=1;fontSize=14;fontColor=none;" vertex="1" parent="WIyWlLk6GJQsqaUBKTNV-1">
          <mxGeometry x="279.68" y="80" width="246.88" height="80" as="geometry" />
        </mxCell>
        <mxCell id="GjC-EsQWn6sngkv1voxn-13" value="3.划分整体区域区间，根据原有数据求各个区间的概率密度" style="ellipse;whiteSpace=wrap;html=1;rounded=1;fontSize=14;fontColor=none;" vertex="1" parent="WIyWlLk6GJQsqaUBKTNV-1">
          <mxGeometry x="550" y="125" width="240" height="80" as="geometry" />
        </mxCell>
        <mxCell id="GjC-EsQWn6sngkv1voxn-18" value="3.划分整体区域区间，根据原有数据求各个区间的概率密度" style="ellipse;whiteSpace=wrap;html=1;rounded=1;fontSize=14;fontColor=none;" vertex="1" parent="WIyWlLk6GJQsqaUBKTNV-1">
          <mxGeometry x="580" y="275" width="240" height="80" as="geometry" />
        </mxCell>
        <mxCell id="GjC-EsQWn6sngkv1voxn-19" value="3.划分整体区域区间，根据原有数据求各个区间的概率密度" style="ellipse;whiteSpace=wrap;html=1;rounded=1;fontSize=14;fontColor=none;" vertex="1" parent="WIyWlLk6GJQsqaUBKTNV-1">
          <mxGeometry x="580" y="375" width="240" height="80" as="geometry" />
        </mxCell>
        <mxCell id="GjC-EsQWn6sngkv1voxn-20" value="3.划分整体区域区间，根据原有数据求各个区间的概率密度" style="ellipse;whiteSpace=wrap;html=1;rounded=1;fontSize=14;fontColor=none;" vertex="1" parent="WIyWlLk6GJQsqaUBKTNV-1">
          <mxGeometry x="10" y="270" width="240" height="80" as="geometry" />
        </mxCell>
        <mxCell id="GjC-EsQWn6sngkv1voxn-21" value="3.划分整体区域区间，根据原有数据求各个区间的概率密度" style="ellipse;whiteSpace=wrap;html=1;rounded=1;fontSize=14;fontColor=none;" vertex="1" parent="WIyWlLk6GJQsqaUBKTNV-1">
          <mxGeometry x="10" y="370" width="240" height="80" as="geometry" />
        </mxCell>
        <mxCell id="GjC-EsQWn6sngkv1voxn-22" value="3.划分整体区域区间，根据原有数据求各个区间的概率密度" style="ellipse;whiteSpace=wrap;html=1;rounded=1;fontSize=14;fontColor=none;" vertex="1" parent="WIyWlLk6GJQsqaUBKTNV-1">
          <mxGeometry x="50" y="635" width="240" height="80" as="geometry" />
        </mxCell>
        <mxCell id="GjC-EsQWn6sngkv1voxn-23" value="3.划分整体区域区间，根据原有数据求各个区间的概率密度" style="ellipse;whiteSpace=wrap;html=1;rounded=1;fontSize=14;fontColor=none;" vertex="1" parent="WIyWlLk6GJQsqaUBKTNV-1">
          <mxGeometry x="286.56" y="720" width="240" height="80" as="geometry" />
        </mxCell>
        <mxCell id="GjC-EsQWn6sngkv1voxn-24" value="3.划分整体区域区间，根据原有数据求各个区间的概率密度" style="ellipse;whiteSpace=wrap;html=1;rounded=1;fontSize=14;fontColor=none;" vertex="1" parent="WIyWlLk6GJQsqaUBKTNV-1">
          <mxGeometry x="520" y="640" width="240" height="80" as="geometry" />
        </mxCell>
      </root>
    </mxGraphModel>
  </diagram>
</mxfile>
